<svg width="28" height="35" viewBox="0 0 28 35" fill="none" xmlns="http://www.w3.org/2000/svg">
<path d="M6.36336 12.3831C6.89401 8.42993 10.3043 5.38035 14.4322 5.38035C18.9282 5.38035 22.5729 8.99791 22.5729 13.4604C22.5729 15.8285 21.5465 17.9587 19.9112 19.4365C19.544 19.7684 19.4903 20.3421 19.82 20.7108C20.6126 21.5972 21.3326 22.549 21.9709 23.5569C22.2295 23.9653 22.7846 24.0845 23.1566 23.7742C26.1179 21.3039 28 17.6003 28 13.4604C28 6.02291 21.9255 -0.00634766 14.4322 -0.00634766C7.21237 -0.00634766 1.30962 5.59104 0.888564 12.6523C0.862001 13.0977 1.22901 13.4604 1.6786 13.4604H3.57808C4.12969 13.4604 4.41524 13.4614 5.21775 13.5209C6.02028 13.5804 6.21874 13.4604 6.36336 12.3831Z" fill="#F87248"/>
<path fill-rule="evenodd" clip-rule="evenodd" d="M0.864502 16.9611C0.864502 16.5148 1.22897 16.1531 1.67856 16.1531H3.57805C13.7957 16.1531 22.129 24.1605 22.5557 34.1979C22.5747 34.6437 22.2084 35.0065 21.7588 35.0065H17.9598C17.5102 35.0065 17.1483 34.6439 17.1218 34.1984C16.7007 27.1371 10.7979 21.5397 3.57805 21.5397H1.67856C1.22897 21.5397 0.864502 21.178 0.864502 20.7318V16.9611Z" fill="#F87248"/>
</svg>
